<?xml version="1.0" encoding="utf-8"?>
<!-- Generator: Adobe Illustrator 24.0.1, SVG Export Plug-In . SVG Version: 6.00 Build 0)  -->
<svg version="1.1" id="Layer_3" xmlns="http://www.w3.org/2000/svg" xmlns:xlink="http://www.w3.org/1999/xlink" x="0px" y="0px"
	 viewBox="0 0 135 44" style="enable-background:new 0 0 135 44;" xml:space="preserve">
<style type="text/css">
	.st0{fill:url(#SVGID_1_);}
	.st1{fill:url(#SVGID_2_);}
	.st2{fill:url(#SVGID_3_);}
	.st3{fill:url(#SVGID_4_);}
	.st4{fill:url(#SVGID_5_);}
	.st5{fill:url(#SVGID_6_);}
	.st6{fill:url(#SVGID_7_);}
	.st7{fill:url(#SVGID_8_);}
	.st8{fill:url(#SVGID_9_);}
	.st9{fill:url(#SVGID_10_);}
	.st10{fill:url(#SVGID_11_);}
	.st11{fill:url(#SVGID_12_);}
	.st12{fill:url(#SVGID_13_);}
	.st13{fill:url(#SVGID_14_);}
	.st14{fill:url(#SVGID_15_);}
	.st15{fill:url(#SVGID_16_);}
	.st16{fill:url(#SVGID_17_);}
	.st17{fill:url(#SVGID_18_);}
	.st18{fill:url(#SVGID_19_);}
	.st19{fill:url(#SVGID_20_);}
	.st20{fill:url(#SVGID_21_);}
</style>
<g>
	<g>
		<g>
			<g>
				
					<linearGradient id="SVGID_1_" gradientUnits="userSpaceOnUse" x1="1910.4136" y1="21.9309" x2="1936.2935" y2="21.9309" gradientTransform="matrix(-1 0 0 1 1939.9124 0)">
					<stop  offset="0" style="stop-color:#7D262B"/>
					<stop  offset="1" style="stop-color:#D74654"/>
				</linearGradient>
				<path class="st0" d="M7.4,7.3c3.1-3.1,7.8-4.5,12.1-3.5c3.3,0.8,6.2,2.9,8,5.7c0.9,1.5,1.5,3.1,1.8,4.8c0.3,1.9,0.1,3.7-0.3,5.6
					c-0.7,3.4-2.3,6.7-4.1,9.7c-1.6,2.6-3.3,5.1-5.2,7.5c-0.6,0.7-1.2,1.4-1.8,2.1c-0.3,0.4-0.7,0.9-1.2,1.1c-0.1,0-0.2,0.1-0.3,0.1
					c-0.1,0-0.2-0.1-0.3-0.1c-0.2-0.1-0.4-0.3-0.6-0.5c-0.1-0.1-0.2-0.2-0.3-0.3c-0.5-0.6-1-1.2-1.5-1.8c-1.8-2.3-3.5-4.6-5.1-7.1
					c-1.8-3-3.5-6.2-4.4-9.6c-0.5-1.9-0.8-3.8-0.6-5.7c0.2-2,0.8-4,1.9-5.7C6.1,8.7,6.7,8,7.4,7.3 M8.7,19.3c1.4,3.7,5.3,6,9.2,5.4
					c3-0.5,5.5-2.7,6.5-5.5c1-2.9,0.3-6.2-1.9-8.4c-2.3-2.4-5.8-3.2-8.9-2.1c-3.7,1.4-6,5.3-5.3,9.2C8.4,18.4,8.6,18.8,8.7,19.3
					C8.8,19.5,8.4,18.4,8.7,19.3z"/>
				
					<linearGradient id="SVGID_2_" gradientUnits="userSpaceOnUse" x1="1929.8125" y1="40.3742" x2="1929.8125" y2="3.4881" gradientTransform="matrix(-1 0 0 1 1939.9124 0)">
					<stop  offset="0" style="stop-color:#7D262B"/>
					<stop  offset="1" style="stop-color:#D74654"/>
				</linearGradient>
				<path class="st1" d="M3.6,16.4c0,3.3,1.1,6.6,2.5,9.5c1.3,2.8,3,5.5,4.8,8c1.2,1.7,2.5,3.4,3.9,5c0.2,0.3,0.5,0.5,0.7,0.8
					c0.2,0.2,0.4,0.4,0.6,0.5c0.1,0,0.4,0.2,0.4,0.1c0,0,0-0.3,0-0.3c0-1.6,0-3.2,0-4.8c0-2.2,0-4.5,0-6.7c0-0.8,0-1.7,0-2.5
					c0-0.3,0-0.5,0-0.8c0-0.1,0-0.3,0-0.4c-0.1-0.1-0.5,0-0.7,0c-0.5,0-1-0.1-1.5-0.3c-1-0.3-1.9-0.7-2.7-1.3
					c-1.7-1.2-2.8-3-3.3-5.1C8,16,8.4,13.8,9.5,12c1-1.6,2.5-2.8,4.2-3.4c0.5-0.2,1-0.3,1.5-0.4c0.2,0,0.5-0.1,0.7-0.1
					c0.1,0,0.3,0,0.4,0c0,0,0.3,0,0.3,0c0,0,0-0.2,0-0.2c0-0.2,0-0.4,0-0.5c0-1.1,0-2.1,0-3.2c0-0.2,0-0.5,0-0.7c-2.9,0-5.7,1-8,2.8
					c-1.9,1.5-3.4,3.6-4.2,6C3.9,13.6,3.6,15,3.6,16.4z"/>
			</g>
			<g>
				
					<linearGradient id="SVGID_3_" gradientUnits="userSpaceOnUse" x1="1914.6006" y1="16.4308" x2="1932.1047" y2="16.4308" gradientTransform="matrix(-1 0 0 1 1939.9124 0)">
					<stop  offset="0" style="stop-color:#D74654"/>
					<stop  offset="1" style="stop-color:#7D262B"/>
				</linearGradient>
				<path class="st2" d="M25.3,16.4c0,3.6-2.4,7-5.8,8.2c-3.4,1.3-7.4,0.2-9.7-2.7C7.5,19.2,7.1,15.1,9,11.9
					c1.9-3.1,5.7-4.8,9.3-4.1c3.5,0.7,6.3,3.7,6.9,7.2C25.3,15.5,25.3,16,25.3,16.4z M13.7,10.2c-2.9,1.3-4.6,4.6-3.9,7.7
					c0.6,2.4,2.4,4.4,4.8,5.1c2.4,0.7,5.1-0.1,6.8-1.9c1.9-2,2.4-5,1.3-7.5c-1.3-3-4.7-4.6-7.9-3.8C14.5,9.9,14.1,10,13.7,10.2
					C13.5,10.3,13.9,10.1,13.7,10.2z"/>
			</g>
		</g>
	</g>
	
		<linearGradient id="SVGID_4_" gradientUnits="userSpaceOnUse" x1="1920.1321" y1="16.4359" x2="1926.5695" y2="16.4359" gradientTransform="matrix(-1 0 0 1 1939.9124 0)">
		<stop  offset="0" style="stop-color:#7D262B"/>
		<stop  offset="1" style="stop-color:#D74654"/>
	</linearGradient>
	<path class="st3" d="M16.6,13.2c1.3,0,2.6,0.9,3,2.1c0.5,1.3,0.1,2.7-1,3.6c-1,0.9-2.5,1-3.7,0.3c-1.1-0.7-1.8-2.1-1.5-3.4
		C13.7,14.3,15,13.2,16.6,13.2z"/>
	<g>
		<g>
			<g>
				
					<linearGradient id="SVGID_5_" gradientUnits="userSpaceOnUse" x1="1910.4136" y1="21.9309" x2="1936.2935" y2="21.9309" gradientTransform="matrix(-1 0 0 1 1939.9124 0)">
					<stop  offset="0" style="stop-color:#7D262B"/>
					<stop  offset="1" style="stop-color:#D74654"/>
				</linearGradient>
				<path class="st4" d="M7.4,7.3c3.1-3.1,7.8-4.5,12.1-3.5c3.3,0.8,6.2,2.9,8,5.7c0.9,1.5,1.5,3.1,1.8,4.8c0.3,1.9,0.1,3.7-0.3,5.6
					c-0.7,3.4-2.3,6.7-4.1,9.7c-1.6,2.6-3.3,5.1-5.2,7.5c-0.6,0.7-1.2,1.4-1.8,2.1c-0.3,0.4-0.7,0.9-1.2,1.1c-0.1,0-0.2,0.1-0.3,0.1
					c-0.1,0-0.2-0.1-0.3-0.1c-0.2-0.1-0.4-0.3-0.6-0.5c-0.1-0.1-0.2-0.2-0.3-0.3c-0.5-0.6-1-1.2-1.5-1.8c-1.8-2.3-3.5-4.6-5.1-7.1
					c-1.8-3-3.5-6.2-4.4-9.6c-0.5-1.9-0.8-3.8-0.6-5.7c0.2-2,0.8-4,1.9-5.7C6.1,8.7,6.7,8,7.4,7.3 M8.7,19.3c1.4,3.7,5.3,6,9.2,5.4
					c3-0.5,5.5-2.7,6.5-5.5c1-2.9,0.3-6.2-1.9-8.4c-2.3-2.4-5.8-3.2-8.9-2.1c-3.7,1.4-6,5.3-5.3,9.2C8.4,18.4,8.6,18.8,8.7,19.3
					C8.8,19.5,8.4,18.4,8.7,19.3z"/>
				
					<linearGradient id="SVGID_6_" gradientUnits="userSpaceOnUse" x1="1929.8125" y1="40.3742" x2="1929.8125" y2="3.4881" gradientTransform="matrix(-1 0 0 1 1939.9124 0)">
					<stop  offset="0" style="stop-color:#7D262B"/>
					<stop  offset="1" style="stop-color:#D74654"/>
				</linearGradient>
				<path class="st5" d="M3.6,16.4c0,3.3,1.1,6.6,2.5,9.5c1.3,2.8,3,5.5,4.8,8c1.2,1.7,2.5,3.4,3.9,5c0.2,0.3,0.5,0.5,0.7,0.8
					c0.2,0.2,0.4,0.4,0.6,0.5c0.1,0,0.4,0.2,0.4,0.1c0,0,0-0.3,0-0.3c0-1.6,0-3.2,0-4.8c0-2.2,0-4.5,0-6.7c0-0.8,0-1.7,0-2.5
					c0-0.3,0-0.5,0-0.8c0-0.1,0-0.3,0-0.4c-0.1-0.1-0.5,0-0.7,0c-0.5,0-1-0.1-1.5-0.3c-1-0.3-1.9-0.7-2.7-1.3
					c-1.7-1.2-2.8-3-3.3-5.1C8,16,8.4,13.8,9.5,12c1-1.6,2.5-2.8,4.2-3.4c0.5-0.2,1-0.3,1.5-0.4c0.2,0,0.5-0.1,0.7-0.1
					c0.1,0,0.3,0,0.4,0c0,0,0.3,0,0.3,0c0,0,0-0.2,0-0.2c0-0.2,0-0.4,0-0.5c0-1.1,0-2.1,0-3.2c0-0.2,0-0.5,0-0.7c-2.9,0-5.7,1-8,2.8
					c-1.9,1.5-3.4,3.6-4.2,6C3.9,13.6,3.6,15,3.6,16.4z"/>
			</g>
			<g>
				
					<linearGradient id="SVGID_7_" gradientUnits="userSpaceOnUse" x1="1914.6006" y1="16.4308" x2="1932.1047" y2="16.4308" gradientTransform="matrix(-1 0 0 1 1939.9124 0)">
					<stop  offset="0" style="stop-color:#D74654"/>
					<stop  offset="1" style="stop-color:#7D262B"/>
				</linearGradient>
				<path class="st6" d="M25.3,16.4c0,3.6-2.4,7-5.8,8.2c-3.4,1.3-7.4,0.2-9.7-2.7C7.5,19.2,7.1,15.1,9,11.9
					c1.9-3.1,5.7-4.8,9.3-4.1c3.5,0.7,6.3,3.7,6.9,7.2C25.3,15.5,25.3,16,25.3,16.4z M13.7,10.2c-2.9,1.3-4.6,4.6-3.9,7.7
					c0.6,2.4,2.4,4.4,4.8,5.1c2.4,0.7,5.1-0.1,6.8-1.9c1.9-2,2.4-5,1.3-7.5c-1.3-3-4.7-4.6-7.9-3.8C14.5,9.9,14.1,10,13.7,10.2
					C13.5,10.3,13.9,10.1,13.7,10.2z"/>
			</g>
		</g>
	</g>
	
		<linearGradient id="SVGID_8_" gradientUnits="userSpaceOnUse" x1="1920.1321" y1="16.4359" x2="1926.5695" y2="16.4359" gradientTransform="matrix(-1 0 0 1 1939.9124 0)">
		<stop  offset="0" style="stop-color:#7D262B"/>
		<stop  offset="1" style="stop-color:#D74654"/>
	</linearGradient>
	<path class="st7" d="M16.6,13.2c1.3,0,2.6,0.9,3,2.1c0.5,1.3,0.1,2.7-1,3.6c-1,0.9-2.5,1-3.7,0.3c-1.1-0.7-1.8-2.1-1.5-3.4
		C13.7,14.3,15,13.2,16.6,13.2z"/>
	<g>
		<g>
			<g>
				
					<linearGradient id="SVGID_9_" gradientUnits="userSpaceOnUse" x1="1910.4136" y1="21.9309" x2="1936.2935" y2="21.9309" gradientTransform="matrix(-1 0 0 1 1939.9124 0)">
					<stop  offset="0" style="stop-color:#7D262B"/>
					<stop  offset="1" style="stop-color:#D74654"/>
				</linearGradient>
				<path class="st8" d="M7.4,7.3c3.1-3.1,7.8-4.5,12.1-3.5c3.3,0.8,6.2,2.9,8,5.7c0.9,1.5,1.5,3.1,1.8,4.8c0.3,1.9,0.1,3.7-0.3,5.6
					c-0.7,3.4-2.3,6.7-4.1,9.7c-1.6,2.6-3.3,5.1-5.2,7.5c-0.6,0.7-1.2,1.4-1.8,2.1c-0.3,0.4-0.7,0.9-1.2,1.1c-0.1,0-0.2,0.1-0.3,0.1
					c-0.1,0-0.2-0.1-0.3-0.1c-0.2-0.1-0.4-0.3-0.6-0.5c-0.1-0.1-0.2-0.2-0.3-0.3c-0.5-0.6-1-1.2-1.5-1.8c-1.8-2.3-3.5-4.6-5.1-7.1
					c-1.8-3-3.5-6.2-4.4-9.6c-0.5-1.9-0.8-3.8-0.6-5.7c0.2-2,0.8-4,1.9-5.7C6.1,8.7,6.7,8,7.4,7.3 M8.7,19.3c1.4,3.7,5.3,6,9.2,5.4
					c3-0.5,5.5-2.7,6.5-5.5c1-2.9,0.3-6.2-1.9-8.4c-2.3-2.4-5.8-3.2-8.9-2.1c-3.7,1.4-6,5.3-5.3,9.2C8.4,18.4,8.6,18.8,8.7,19.3
					C8.8,19.5,8.4,18.4,8.7,19.3z"/>
				
					<linearGradient id="SVGID_10_" gradientUnits="userSpaceOnUse" x1="1929.8125" y1="40.3742" x2="1929.8125" y2="3.4881" gradientTransform="matrix(-1 0 0 1 1939.9124 0)">
					<stop  offset="0" style="stop-color:#7D262B"/>
					<stop  offset="1" style="stop-color:#D74654"/>
				</linearGradient>
				<path class="st9" d="M3.6,16.4c0,3.3,1.1,6.6,2.5,9.5c1.3,2.8,3,5.5,4.8,8c1.2,1.7,2.5,3.4,3.9,5c0.2,0.3,0.5,0.5,0.7,0.8
					c0.2,0.2,0.4,0.4,0.6,0.5c0.1,0,0.4,0.2,0.4,0.1c0,0,0-0.3,0-0.3c0-1.6,0-3.2,0-4.8c0-2.2,0-4.5,0-6.7c0-0.8,0-1.7,0-2.5
					c0-0.3,0-0.5,0-0.8c0-0.1,0-0.3,0-0.4c-0.1-0.1-0.5,0-0.7,0c-0.5,0-1-0.1-1.5-0.3c-1-0.3-1.9-0.7-2.7-1.3
					c-1.7-1.2-2.8-3-3.3-5.1C8,16,8.4,13.8,9.5,12c1-1.6,2.5-2.8,4.2-3.4c0.5-0.2,1-0.3,1.5-0.4c0.2,0,0.5-0.1,0.7-0.1
					c0.1,0,0.3,0,0.4,0c0,0,0.3,0,0.3,0c0,0,0-0.2,0-0.2c0-0.2,0-0.4,0-0.5c0-1.1,0-2.1,0-3.2c0-0.2,0-0.5,0-0.7c-2.9,0-5.7,1-8,2.8
					c-1.9,1.5-3.4,3.6-4.2,6C3.9,13.6,3.6,15,3.6,16.4z"/>
			</g>
			<g>
				
					<linearGradient id="SVGID_11_" gradientUnits="userSpaceOnUse" x1="1914.6006" y1="16.4308" x2="1932.1047" y2="16.4308" gradientTransform="matrix(-1 0 0 1 1939.9124 0)">
					<stop  offset="0" style="stop-color:#D74654"/>
					<stop  offset="1" style="stop-color:#7D262B"/>
				</linearGradient>
				<path class="st10" d="M25.3,16.4c0,3.6-2.4,7-5.8,8.2c-3.4,1.3-7.4,0.2-9.7-2.7C7.5,19.2,7.1,15.1,9,11.9
					c1.9-3.1,5.7-4.8,9.3-4.1c3.5,0.7,6.3,3.7,6.9,7.2C25.3,15.5,25.3,16,25.3,16.4z M13.7,10.2c-2.9,1.3-4.6,4.6-3.9,7.7
					c0.6,2.4,2.4,4.4,4.8,5.1c2.4,0.7,5.1-0.1,6.8-1.9c1.9-2,2.4-5,1.3-7.5c-1.3-3-4.7-4.6-7.9-3.8C14.5,9.9,14.1,10,13.7,10.2
					C13.5,10.3,13.9,10.1,13.7,10.2z"/>
			</g>
		</g>
	</g>
	
		<linearGradient id="SVGID_12_" gradientUnits="userSpaceOnUse" x1="1920.1321" y1="16.4359" x2="1926.5695" y2="16.4359" gradientTransform="matrix(-1 0 0 1 1939.9124 0)">
		<stop  offset="0" style="stop-color:#7D262B"/>
		<stop  offset="1" style="stop-color:#D74654"/>
	</linearGradient>
	<path class="st11" d="M16.6,13.2c1.3,0,2.6,0.9,3,2.1c0.5,1.3,0.1,2.7-1,3.6c-1,0.9-2.5,1-3.7,0.3c-1.1-0.7-1.8-2.1-1.5-3.4
		C13.7,14.3,15,13.2,16.6,13.2z"/>
</g>
<g>
	<g>
		<g>
			<linearGradient id="SVGID_13_" gradientUnits="userSpaceOnUse" x1="32.3529" y1="23.9557" x2="43.2983" y2="23.9557">
				<stop  offset="0" style="stop-color:#7D262B"/>
				<stop  offset="1" style="stop-color:#D74654"/>
			</linearGradient>
			<path class="st12" d="M43.3,18.6L39.5,26v3.2h-3.3V26l-3.8-7.4h3.8l1.7,3.8l1.7-3.8H43.3z"/>
		</g>
		<g>
			<linearGradient id="SVGID_14_" gradientUnits="userSpaceOnUse" x1="43.2983" y1="23.9557" x2="54.8887" y2="23.9557">
				<stop  offset="0" style="stop-color:#7D262B"/>
				<stop  offset="1" style="stop-color:#D74654"/>
			</linearGradient>
			<path class="st13" d="M50.9,27.7h-3.5l-0.5,1.6h-3.5l3.9-10.6H51l3.9,10.6h-3.5L50.9,27.7z M50,25.2l-1-3l-1,3H50z"/>
		</g>
		<g>
			<linearGradient id="SVGID_15_" gradientUnits="userSpaceOnUse" x1="55.0389" y1="23.9557" x2="63.975" y2="23.9557">
				<stop  offset="0" style="stop-color:#7D262B"/>
				<stop  offset="1" style="stop-color:#D74654"/>
			</linearGradient>
			<path class="st14" d="M64,18.6v2.6h-2.8v8h-3.3v-8H55v-2.6H64z"/>
		</g>
		<g>
			<linearGradient id="SVGID_16_" gradientUnits="userSpaceOnUse" x1="64.8745" y1="23.9557" x2="73.8712" y2="23.9557">
				<stop  offset="0" style="stop-color:#7D262B"/>
				<stop  offset="1" style="stop-color:#D74654"/>
			</linearGradient>
			<path class="st15" d="M70.2,29.3l-2-3.8h0v3.8h-3.3V18.6h4.9c0.9,0,1.6,0.2,2.2,0.5c0.6,0.3,1.1,0.7,1.4,1.2
				c0.3,0.5,0.5,1.1,0.5,1.8c0,0.7-0.2,1.3-0.6,1.9s-1,0.9-1.7,1.2l2.3,4.1H70.2z M68.2,23.2h1.3c0.3,0,0.6-0.1,0.7-0.2
				c0.2-0.1,0.2-0.4,0.2-0.7c0-0.3-0.1-0.5-0.2-0.7c-0.2-0.2-0.4-0.2-0.7-0.2h-1.3V23.2z"/>
		</g>
		<g>
			<linearGradient id="SVGID_17_" gradientUnits="userSpaceOnUse" x1="74.1716" y1="23.9557" x2="85.762" y2="23.9557">
				<stop  offset="0" style="stop-color:#7D262B"/>
				<stop  offset="1" style="stop-color:#D74654"/>
			</linearGradient>
			<path class="st16" d="M81.7,27.7h-3.5l-0.5,1.6h-3.5l3.9-10.6h3.8l3.9,10.6h-3.5L81.7,27.7z M80.9,25.2l-1-3l-1,3H80.9z"/>
		</g>
		<g>
			<linearGradient id="SVGID_18_" gradientUnits="userSpaceOnUse" x1="86.2115" y1="23.9408" x2="96.5881" y2="23.9408">
				<stop  offset="0" style="stop-color:#7D262B"/>
				<stop  offset="1" style="stop-color:#D74654"/>
			</linearGradient>
			<path class="st17" d="M93,22.3c-0.1-0.2-0.3-0.4-0.6-0.5c-0.2-0.1-0.5-0.2-0.9-0.2c-0.6,0-1.1,0.2-1.5,0.6
				c-0.3,0.4-0.5,1-0.5,1.7c0,0.8,0.2,1.4,0.6,1.9c0.4,0.4,1,0.6,1.8,0.6c0.8,0,1.4-0.3,1.9-0.9h-2.7v-2.4h5.4v3.3
				c-0.5,0.8-1.1,1.5-1.9,2c-0.8,0.6-1.8,0.8-3.1,0.8c-1.1,0-2.1-0.2-2.9-0.7c-0.8-0.5-1.4-1.1-1.9-1.9c-0.4-0.8-0.7-1.8-0.7-2.8
				c0-1,0.2-2,0.7-2.8c0.4-0.8,1.1-1.5,1.9-1.9c0.8-0.5,1.8-0.7,2.8-0.7c1.4,0,2.5,0.3,3.4,1c0.9,0.7,1.4,1.6,1.6,2.7H93z"/>
		</g>
		<g>
			<linearGradient id="SVGID_19_" gradientUnits="userSpaceOnUse" x1="97.7874" y1="23.9557" x2="106.7837" y2="23.9557">
				<stop  offset="0" style="stop-color:#7D262B"/>
				<stop  offset="1" style="stop-color:#D74654"/>
			</linearGradient>
			<path class="st18" d="M103.1,29.3l-2-3.8h0v3.8h-3.3V18.6h4.9c0.9,0,1.6,0.2,2.2,0.5c0.6,0.3,1.1,0.7,1.4,1.2
				c0.3,0.5,0.5,1.1,0.5,1.8c0,0.7-0.2,1.3-0.6,1.9c-0.4,0.6-1,0.9-1.7,1.2l2.3,4.1H103.1z M101.1,23.2h1.3c0.3,0,0.6-0.1,0.7-0.2
				c0.2-0.1,0.2-0.4,0.2-0.7c0-0.3-0.1-0.5-0.2-0.7c-0.2-0.2-0.4-0.2-0.7-0.2h-1.3V23.2z"/>
		</g>
		<g>
			<linearGradient id="SVGID_20_" gradientUnits="userSpaceOnUse" x1="107.083" y1="23.9557" x2="118.6734" y2="23.9557">
				<stop  offset="0" style="stop-color:#7D262B"/>
				<stop  offset="1" style="stop-color:#D74654"/>
			</linearGradient>
			<path class="st19" d="M114.6,27.7h-3.5l-0.5,1.6h-3.5l3.9-10.6h3.8l3.9,10.6h-3.5L114.6,27.7z M113.8,25.2l-1-3l-1,3H113.8z"/>
		</g>
		<g>
			<linearGradient id="SVGID_21_" gradientUnits="userSpaceOnUse" x1="119.4232" y1="23.9557" x2="132.1832" y2="23.9557">
				<stop  offset="0" style="stop-color:#7D262B"/>
				<stop  offset="1" style="stop-color:#D74654"/>
			</linearGradient>
			<path class="st20" d="M132.2,18.6v10.6h-3.3V24l-1.6,5.3h-2.8l-1.6-5.3v5.3h-3.3V18.6h4.1l2.3,6.4l2.3-6.4H132.2z"/>
		</g>
	</g>
</g>
</svg>
